<svg width="177" height="81" viewBox="0 0 177 81" fill="none" xmlns="http://www.w3.org/2000/svg">
<g clip-path="url(#clip0)">
<path d="M34.0781 75.9844C30.5781 75.9844 27.3906 75.2188 24.5156 73.6875C21.6719 72.125 19.6094 70.3594 18.3281 68.3906L17.1094 74.9531H6.46875V4.5L18.75 3.70312V19.6406C18.75 22.7344 18.6562 26.25 18.4688 30.1875C22.5312 24.875 27.8281 22.2188 34.3594 22.2188C40.9219 22.2188 46.0625 24.6562 49.7812 29.5312C53.5312 34.4062 55.4062 40.7812 55.4062 48.6562C55.4062 56.8438 53.4688 63.4531 49.5938 68.4844C45.75 73.4844 40.5781 75.9844 34.0781 75.9844ZM31.125 66.6562C34.7812 66.6562 37.7031 65.1094 39.8906 62.0156C42.0781 58.9219 43.1719 54.5312 43.1719 48.8438C43.1719 43.125 42.0938 38.7969 39.9375 35.8594C37.8125 32.9219 34.9219 31.4531 31.2656 31.4531C22.9531 31.4531 18.75 37.0625 18.6562 48.2812C18.6562 54.5938 19.7031 59.2344 21.7969 62.2031C23.8906 65.1719 27 66.6562 31.125 66.6562ZM84.6094 75.9844C77.8906 75.9844 72.6094 73.5156 68.7656 68.5781C64.9219 63.6406 63 57.0469 63 48.7969C63 40.7969 64.9062 34.375 68.7188 29.5312C72.5625 24.6562 77.8438 22.2188 84.5625 22.2188C91.875 22.2188 97.0469 24.8125 100.078 30C99.7656 26.9375 99.6094 23.9844 99.6094 21.1406V4.5L111.891 3.70312V75H101.25L99.8906 67.9688C99.3594 68.8125 98.8594 69.5469 98.3906 70.1719C97.9531 70.7656 97.2969 71.4688 96.4219 72.2812C95.5469 73.0625 94.5938 73.7031 93.5625 74.2031C92.5625 74.6719 91.2812 75.0781 89.7188 75.4219C88.1875 75.7969 86.4844 75.9844 84.6094 75.9844ZM87.5156 66.6562C95.7656 66.6562 99.9531 61.0469 100.078 49.8281C100.078 43.4844 99.0156 38.8594 96.8906 35.9531C94.7656 33.0469 91.5938 31.5938 87.375 31.5938C83.6875 31.5938 80.7344 33.0781 78.5156 36.0469C76.3281 38.9844 75.2344 43.3281 75.2344 49.0781C75.2344 54.7969 76.3281 59.1562 78.5156 62.1562C80.7344 65.1562 83.7344 66.6562 87.5156 66.6562ZM143.109 75.9844C136.391 75.9844 131.109 73.5156 127.266 68.5781C123.422 63.6406 121.5 57.0469 121.5 48.7969C121.5 40.7969 123.406 34.375 127.219 29.5312C131.062 24.6562 136.344 22.2188 143.062 22.2188C150.375 22.2188 155.547 24.8125 158.578 30C158.266 26.9375 158.109 23.9844 158.109 21.1406V4.5L170.391 3.70312V75H159.75L158.391 67.9688C157.859 68.8125 157.359 69.5469 156.891 70.1719C156.453 70.7656 155.797 71.4688 154.922 72.2812C154.047 73.0625 153.094 73.7031 152.062 74.2031C151.062 74.6719 149.781 75.0781 148.219 75.4219C146.688 75.7969 144.984 75.9844 143.109 75.9844ZM146.016 66.6562C154.266 66.6562 158.453 61.0469 158.578 49.8281C158.578 43.4844 157.516 38.8594 155.391 35.9531C153.266 33.0469 150.094 31.5938 145.875 31.5938C142.188 31.5938 139.234 33.0781 137.016 36.0469C134.828 38.9844 133.734 43.3281 133.734 49.0781C133.734 54.7969 134.828 59.1562 137.016 62.1562C139.234 65.1562 142.234 66.6562 146.016 66.6562Z" fill="#BE123C"/>
</g>
<defs>
<clipPath id="clip0">
<rect width="177" height="81" fill="white"/>
</clipPath>
</defs>
</svg>
